<svg xmlns="http://www.w3.org/2000/svg" viewBox="0 0 100 100">
  <defs>
    <linearGradient id="grad" x1="0%" y1="0%" x2="100%" y2="100%">
      <stop offset="0%" style="stop-color:#4f46e5;stop-opacity:1" />
      <stop offset="100%" style="stop-color:#9333ea;stop-opacity:1" />
    </linearGradient>
  </defs>
  
  <!-- Background Circle -->
  <circle cx="50" cy="50" r="50" fill="url(#grad)" />
  
  <!-- Globe/Currency Icon -->
  <path d="M50 15 C30.67 15 15 30.67 15 50 C15 69.33 30.67 85 50 85 C69.33 85 85 69.33 85 50 C85 30.67 69.33 15 50 15 Z M50 78 C34.536 78 22 65.464 22 50 C22 34.536 34.536 22 50 22 C65.464 22 78 34.536 78 50 C78 65.464 65.464 78 50 78 Z" fill="white" opacity="0.2"/>
  
  <!-- Dollar Sign -->
  <text x="50" y="70" font-family="Arial, sans-serif" font-size="55" font-weight="bold" fill="white" text-anchor="middle">$</text>
</svg>